<?xml version="1.0" encoding="UTF-8"?><svg id="Samsung" xmlns="http://www.w3.org/2000/svg" viewBox="0 0 623.62 95.44"><defs><style>.cls-1{fill:#444;}</style></defs><polygon class="cls-1" points="516.19 72.8 514.97 2.84 537.05 2.84 537.05 91.04 505.29 91.04 483.3 18.68 482.81 18.68 484.04 91.04 462.12 91.04 462.12 2.84 495.21 2.84 515.68 72.8 516.19 72.8"/><polygon class="cls-1" points="115.17 11.1 103 91.96 78.89 91.96 95.42 2.83 135.07 2.83 151.51 91.96 127.55 91.96 115.67 11.1 115.17 11.1"/><polygon class="cls-1" points="219.08 70.98 230.09 2.84 266.43 2.84 268.4 91.96 246.09 91.96 245.53 11.84 245.05 11.87 230.16 91.96 207.52 91.96 192.64 11.84 192.15 11.84 191.6 91.96 169.29 91.96 171.25 2.84 207.61 2.84 218.59 70.98 219.08 70.98"/><path class="cls-1" d="m41.39,66.81c.87,2.16.6,4.92.19,6.61-.74,2.95-2.76,5.98-8.7,5.98-5.58,0-8.96-3.21-8.96-8.07l-.03-8.64H0v6.87c0,19.89,15.63,25.88,32.38,25.88s29.39-5.49,31.51-20.36c1.08-7.7.29-12.74-.09-14.6-3.77-18.7-37.61-24.25-40.09-34.7-.44-1.79-.34-3.68-.12-4.67.64-2.86,2.59-5.98,8.15-5.98,5.21,0,8.28,3.2,8.28,8.07v5.51h22.25v-6.26C62.27,3.03,44.83,0,32.21,0,16.38,0,3.42,5.24,1.05,19.78c-.64,3.97-.73,7.54.22,12.01,3.85,18.21,35.53,23.49,40.13,35.02"/><path class="cls-1" d="m331.16,66.64c.85,2.14.58,4.88.16,6.54-.71,2.93-2.73,5.9-8.6,5.9-5.51,0-8.86-3.16-8.86-7.98l-.02-8.55h-23.67l-.02,6.81c0,19.68,15.5,25.63,32.07,25.63s29.1-5.45,31.19-20.19c1.08-7.6.29-12.58-.09-14.46-3.72-18.47-37.2-23.97-39.7-34.32-.42-1.78-.32-3.64-.1-4.63.63-2.84,2.55-5.92,8.05-5.92,5.19,0,8.21,3.18,8.21,7.99v5.46h22.03v-6.2c0-19.21-17.26-22.22-29.77-22.22-15.68,0-28.5,5.19-30.84,19.58-.63,3.93-.74,7.47.22,11.91,3.81,18.03,35.17,23.24,39.73,34.66"/><path class="cls-1" d="m405.97,78.61c6.21,0,8.12-4.25,8.56-6.46.18-.94.23-2.25.21-3.4V2.82h22.55v63.92c.04,1.63-.13,4.97-.21,5.85-1.57,16.63-14.72,22.03-31.1,22.03s-29.53-5.4-31.09-22.03c-.09-.88-.25-4.23-.2-5.85V2.82h22.55v65.93c-.03,1.15,0,2.46.21,3.4.43,2.21,2.36,6.46,8.54,6.46"/><path class="cls-1" d="m591.86,77.7c6.45,0,8.72-4.11,9.12-6.48.16-1.02.22-2.25.21-3.39v-12.92h-9.14v-13.01h31.57v23.9c0,1.67-.05,2.9-.33,5.87-1.46,16.22-15.54,22.02-31.33,22.02s-29.87-5.79-31.35-22.02c-.28-2.97-.31-4.2-.33-5.87l.02-37.49c0-1.59.21-4.37.37-5.87,2-16.66,15.47-22.02,31.29-22.02s29.64,5.3,31.28,22.02c.29,2.84.19,5.87.19,5.87v2.96s-22.46,0-22.46,0v-5s-.02-2.1-.29-3.4c-.39-1.96-2.08-6.46-8.9-6.46s-8.38,4.27-8.88,6.46c-.26,1.18-.35,2.77-.35,4.22v40.74c0,1.13.03,2.36.2,3.39.42,2.37,2.67,6.48,9.11,6.48"/></svg>