<?xml version="1.0" encoding="UTF-8"?>
<svg id="Layer_2" data-name="Layer 2" xmlns="http://www.w3.org/2000/svg" width="506.2" height="102.04" viewBox="0 0 506.2 102.04">
  <g id="_2" data-name="2">
    <path d="M275,55.77v-20.25h12.67v-9.81h-12.67v-12.63h-9.81v42.69c.02,11.3,9.17,20.46,20.48,20.48h2.09v-9.81h-2.09c-5.88-.01-10.65-4.78-10.66-10.66Z"/>
    <path d="M404.54,24.75h0c-14.47,0-26.19,11.73-26.19,26.2,0,14.47,11.73,26.19,26.2,26.19,14.47,0,26.19-11.73,26.19-26.2h0c-.01-14.46-11.73-26.18-26.19-26.19ZM404.54,67.33c-9.05,0-16.38-7.33-16.38-16.38s7.33-16.38,16.38-16.38,16.38,7.33,16.38,16.38-7.42,16.38-16.38,16.38Z"/>
    <path d="M480.01,24.79c-14.47-.01-26.2,11.71-26.22,26.17-.01,14.47,11.71,26.2,26.17,26.22,6.15,0,12.11-2.16,16.83-6.1v5.17h9.39v-24.51c0-.25.02-.5.02-.76-.02-14.46-11.73-26.17-26.19-26.18ZM480.01,67.37c-9.05,0-16.38-7.33-16.38-16.38s7.33-16.38,16.38-16.38,16.38,7.33,16.38,16.38-7.42,16.38-16.38,16.38Z"/>
    <path d="M349.94,46.18v30.01h9.81v-30.01c0-5.88,4.77-10.65,10.65-10.66h4.66v-9.81h-4.65c-11.3.02-20.46,9.17-20.48,20.48Z"/>
    <rect x="437.3" y="13.07" width="9.83" height="63.23"/>
    <path d="M192.48,29.55c-8.61-7.35-21.55-6.34-28.9,2.27-3.9-4.57-9.6-7.2-15.61-7.19-11.21,0-20.4,9.2-20.4,20.48v31.14h9.81v-31.14c0-.1,0-.2,0-.3.08-5.89,4.92-10.6,10.81-10.51,5.89.08,10.6,4.92,10.51,10.81v31.14h9.82v-31.14c0-5.89,4.77-10.66,10.66-10.66s10.66,4.77,10.66,10.66v31.14h9.81v-31.14c0-5.99-2.63-11.67-7.18-15.56Z"/>
    <path d="M232.5,24.77c-14.53,0-26.27,11.74-26.27,26.19s11.73,26.19,26.19,26.19,26.19-11.73,26.19-26.19c.08-14.45-11.67-26.19-26.11-26.19ZM232.5,67.35c-9.05,0-16.38-7.33-16.38-16.38s7.33-16.38,16.38-16.38,16.38,7.33,16.38,16.38-7.42,16.38-16.38,16.38Z"/>
    <path d="M317.18,24.77h-.01c-14.47,0-26.19,11.74-26.19,26.2,0,14.47,11.74,26.19,26.2,26.19,14.46,0,26.19-11.73,26.19-26.2-.01-14.46-11.73-26.18-26.19-26.19ZM317.18,67.35c-9.05,0-16.38-7.33-16.38-16.38s7.33-16.38,16.38-16.38,16.38,7.33,16.38,16.38-7.42,16.38-16.38,16.38Z"/>
    <path d="M51.01,0C22.83,0,0,22.84,0,51.02s22.83,51.02,51.01,51.02,51.03-22.85,51.03-51.02S79.56,0,51.01,0ZM83.1,75.22c-4.63-15.05-10.53-24.2-17.27-24.2-5.48,0-10.57,6.17-14.79,16.75-4.21-10.56-9.3-16.75-14.84-16.75-6.67,0-12.57,9.13-17.22,24.2h-3.43L35.85,12.73l15.17,46.68,15.17-46.68,20.31,62.49h-3.39Z"/>
  </g>
</svg>