<svg xmlns="http://www.w3.org/2000/svg" viewBox="0 0 56 56" fill="none" stroke="#001e82" stroke-width="1.5" stroke-linecap="round" stroke-linejoin="round"><path d="m41.97 46.18 2.39 2.41.58.72 1.25 1.71 1.01-.69-5.39-6.24a.927.927 0 0 0-.14-.14c-.42-.37-1.05-.2-1.39.25-.08.1-.21.18-.45.14-.56-.08-3.04-3.34-3.04-3.34l2.48 7.75 2.17-2.87.54.31" fill="#0090d0" stroke="none"/><path d="m46.29 42.36-10.65-5.41c-.32-.16-.67.15-.55.48L39 48.72c.11.32.56.36.72.06l1.56-2.92 4.44 5.09c.14.16.39.18.55.04l1.27-1.11c.16-.14.18-.39.04-.55l-4.44-5.09 3.11-1.15c.32-.12.35-.56.04-.72Z" stroke="#e45000"/><g fill="#0090d0" stroke="none"><path d="M43.34 11.76c-2.07-.62-3.58 8.43-5.59 9.01l5.17.16 1.2-9.17h-.78ZM17.06 29.9c-.07.48 1.73.53 1.63.52l.72-2.44v1.62c-.01 1.05-.79 1.91-1.76 1.91s-1.74-.86-1.74-1.94V27.9l.05-4.97c0-.47.03-1.24.08-1.69l1.04.09-.17.99.16 7.56ZM35.29 29.88c-.07.49 1.75.53 1.64.53l.72-2.46v1.64c-.01 1.06-.8 1.93-1.78 1.93s-1.76-.87-1.76-1.96v-1.68l.05-5.02c0-.47.03-1.25.08-1.71l1.05.09-.17 1 .17 7.64ZM28.21 51.63H15.33c-2.58 0-4.67-2.09-4.67-4.67V30.63c5.35 4.81 9.94 19.12 17.55 21Z"/><path d="m7.27 15.05 2.14 2.14c.34.34 1.72.63 2.4-.06l2.44-2.44c-.12-.17-.37-.15-.76.06-.57.31-2.43 1.04-3.96.52-1.53-.52-1.77-.97-2.1-.77a.21.21 0 0 0-.06.04c-.19.12-.24.38-.1.52Z"/><path d="M18.13 12.05c.17.37 1.01 1.82 1.81 1.3l.39 2.46s-.96 1.2-1.65-.28l-.55-3.48ZM15.69 10.29s1.13.98 2.09.47l.12.75s-.67.9-1.61.25c0 0-.74-.63-.6-1.48ZM21.1 7.34c.07.41.62 1.02 1.55.72l-.28 2.54s-1.27.93-1.55-.72l.28-2.54ZM22.77 4.67s1.27 1.08 2.33.5l.14.83s-.73 1.01-1.79.31c0 0-.84-.7-.69-1.64Z"/></g><g stroke="#001e82"><path d="M37.51 52H17.19c-3.93 0-7.12-2.84-7.12-6.34V22.12c0-.5.46-.91 1.02-.91h5.61M38.1 21.21h5.52c.56 0 1.02.41 1.02.91V37.2M20.51 21.21h13.98"/><path d="m16.74 29.03.02-1.34.04-4.33c.04-5.23 4.76-9.32 10.53-9.29 5.77.03 10.43 4.17 10.39 9.4l-.04 4.22v1.34h-.01c0 .59-.58 1.06-1.29 1.06s-1.29-.48-1.29-1.06v-1.35l.04-4.06c.03-4.2-3.48-7.5-7.82-7.52-4.34-.03-7.9 3.23-7.93 7.43l-.04 4.15v1.35c0 .59-.58 1.06-1.29 1.06s-1.29-.48-1.29-1.06M24.55 20.9l.64-4.13"/><path d="m25.65 13.82.58-3.73c.13-.83.88-1.41 1.67-1.29l15.3 2.39c.79.12 1.33.9 1.2 1.74l-1.17 7.89M32.6 12.15l5.12.8"/><path d="m14.16 14.67 1.22 1.73c.22.31.22.74 0 .96l-1.46 1.46c-.22.22-.65.22-.96 0l-1.73-1.22"/><path d="M10.19 10.7 8.36 9.37c-.33-.24-.77-.25-.99-.03L5.91 10.8c-.22.22-.2.66.03.99l1.33 1.83"/><path d="m13.78 15.34-1.86 1.86c-.66.66-1.73.66-2.39 0l-1.86-1.86a1.69 1.69 0 0 1 0-2.39l1.86-1.86a1.69 1.69 0 0 1 2.39 0l1.86 1.86c.66.66.66 1.73 0 2.39Z"/><rect x="18.05" y="8.56" width="1.74" height="8.03" rx=".87" ry=".87" transform="rotate(-9 18.893 12.546)"/><path d="M16.98 8.91c.41 0 .74.33.74.74v2.08c0 .32-.26.57-.57.57h-.17c-.94 0-1.7-.76-1.7-1.7s.76-1.7 1.7-1.7Z" transform="rotate(-9 16.487 10.63)"/><rect x="20.96" y="2.98" width="1.76" height="8.03" rx=".88" ry=".88" transform="rotate(-173.74 21.836 6.995)"/><path d="M24.67 3.22h.13c.32 0 .57.26.57.57v2.25c0 .32-.26.57-.57.57h-.13c-.94 0-1.7-.76-1.7-1.7s.76-1.7 1.7-1.7Z" transform="rotate(-173.74 24.175 4.922)"/></g></svg>
