<svg xmlns="http://www.w3.org/2000/svg" viewBox="0 0 56 56" fill="none" stroke="#001e82" stroke-width="1.5" stroke-linecap="round" stroke-linejoin="round"><g fill="#0090d0" stroke="none"><path d="M26.56 41.14c-11.25 0-20.37.42-20.37.93s9.12.93 20.37.93 20.37-.42 20.37-.93-9.12-.93-20.37-.93ZM10.72 24.31l-.68 9.55s4.59-.21 8.4-.34c1.06-.04.63-1.41-.36-1.74-4.38-1.44-4.71-4.31-5.77-7.11-.43-1.14-1.51-1.56-1.59-.37Z"/></g><g stroke="#001e82"><path d="M48.11 37h2.13l1.38-7.54s.1-.99-.5-2.11c-.6-1.12-3.43-5.81-3.43-5.81s-.37-.5-.85-.78c-.55-.31-1.6-.3-3.02-.31-3.19-.03-5.96.12-5.96.12"/><path d="M36.84 36.97h3.62"/><path d="M20.62 36.97h16.04v-3.04H10.27v3.04h2.41"/><path d="M36.65 33.97H9.67l1.67-21h27.14l-1.83 21z"/><path d="M49.1 28.23c-.06.12-9.35.08-9.35.08-.39 0-.68-.31-.65-.69l.38-4.61c.03-.38.38-.69.76-.69h4.92c.39 0 .86.27 1.05.6 0 0 2.94 5.2 2.88 5.31Z"/><path d="M20.62 38.05c0 2.19-1.78 3.96-3.97 3.96s-3.97-1.77-3.97-3.96 1.78-3.96 3.97-3.96 3.97 1.77 3.97 3.96Z"/><path d="M18.71 38.08c0 1.15-.93 2.08-2.08 2.08s-2.08-.93-2.08-2.08.93-2.08 2.08-2.08"/><path d="M48.25 38.05c0 2.19-1.78 3.96-3.97 3.96s-3.97-1.77-3.97-3.96 1.78-3.96 3.97-3.96 3.97 1.77 3.97 3.96Z"/><path d="M46.36 38.08c0 1.15-.93 2.08-2.08 2.08s-2.08-.93-2.08-2.08.93-2.08 2.08-2.08"/></g><g stroke="#e45000"><path d="M13.1 16.38H9.26"/><path d="M11.18 26.75H6.16"/><path d="M18.75 26.75h-3.64"/><path d="M15.28 22.81H3.24"/><path d="M8.85 19.49H5.73"/></g></svg>
