<svg xmlns="http://www.w3.org/2000/svg" viewBox="0 0 56 56" fill="none" stroke="#0064d2" stroke-width="1.5" stroke-linecap="round" stroke-linejoin="round"><g fill="#0090d0" stroke="none"><path d="m30.45 39.46-2.24-6.2L28 49.17h4.61s2.93-7.3 12.37-7.09v-2.62H30.44ZM10.37 41.17h14.29c.38 0 .72-.17.81-.42l.44-1.18H10.38v1.59ZM19.77 32.7l4.15-1.82c.29-.15.24-.63-.08-.76-.27-.11-.64-.13-1.1-.08-1.34.16-5.96.24-9.02-2.45-3.05-2.69-3.4-3.95-4.16-3.82-.51.09-.4.44-.25.73l4.45 8.21s5.25-.14 6.02-.01Z"/></g><g stroke="#001e82"><path d="m11.59 24.31-1.66.88M12.67 26.35l-1.67.89M21.11 19.23l-1.73.93M25.48 27.35l-1.76.94M23.15 23.37l-10.8 5.76M24.66 30.06l-6.39-11.99M16.03 32.65l-5.44-10.2M14.84 30.41l-1.67.89M22.19 21.27l-1.72.92M24.44 25.3l-1.81.96M10.82 32.7h17.19v16.47H10.82v-9.32"/><path d="M45.15 39.93v9.24H27.99V32.7h17.16"/><path d="m10.83 32.71-3.82 6.75h18.57l2.44-6.75H10.83zM45.18 32.71l3.81 6.75H30.45l-2.43-6.75h17.16zM35.61 15.59V7.38a.97.97 0 0 0-.97-.97c-.06 0-.11 0-.17.02l-6.33 1.12c-.47.08-.7.49-.7.96v8.51M27.59 10.64l7.93-1.39"/><circle cx="25.72" cy="17.18" r="1.72"/><circle cx="33.91" cy="15.89" r="1.72"/><path d="m32.9 32.57 10.94-10.93M38.26 28.36l-1.18-1.18M37.34 29.28l-1.18-1.18M39.17 27.45l-1.18-1.17M30.79 32.65h11.12c.17 0 .6-.58.7-.69.55-.61 1.04-1.27 1.45-1.99 1.21-2.11 1.56-4.57.79-6.9-.73-2.21-3.22-2.65-5.27-2.51-2.54.18-5.06 1.43-6.67 3.41-1.4 1.72-2.04 3.95-2.17 6.13-.01.23-.05 2.55.06 2.55ZM8.72 23.2 20 17l6.72 12.28-6.25 3.42-6.71.01-5.04-9.51z"/></g><path d="m42.42 16.36.6-3.28h-3.21l.21-1.18c.06-.36.37-.62.72-.62h2.6l.49-2.72c.06-.36.37-.62.72-.62h1.08l-.6 3.34h3.21l-.21 1.18c-.06.36-.37.62-.72.62h-2.6l-.48 2.66c-.07.36-.37.62-.72.62h-1.08Z" stroke="#e45000"/></svg>
