<svg xmlns="http://www.w3.org/2000/svg" xmlns:xlink="http://www.w3.org/1999/xlink" width="56" height="56" viewBox="0 0 56 56"><defs><polygon id="a" points="0 0 56 0 56 56 0 56"/></defs><g fill="none" fill-rule="evenodd"><mask id="b" fill="#fff"><use xlink:href="#a"/></mask><path fill="#414141" d="M27.0506337,23.6397168 C28.1040009,23.6876823 29.2543887,23.9573549 30.2128676,24.391176 C30.9176001,24.70988 32.3355944,25.845063 32.5616205,26.6071811 C32.8356239,27.5366455 33.312198,28.6579718 33.0520546,29.6364676 C32.8196315,30.5083734 31.9528425,31.2672938 31.1852065,31.678731 C30.169155,32.2234057 28.938805,32.6359088 27.7841525,32.687072 C26.1891755,32.7595532 24.7296009,31.9782488 23.9022599,30.6426767 C23.0248093,29.2260962 23.0589264,27.8883923 23.5205742,26.3449698 C23.7412696,25.6073674 24.2082481,24.8878852 24.7658504,24.3549354 C25.3671653,23.7804156 26.2435497,23.6034763 27.0506337,23.6397168 M31.949644,21.7999743 C30.1147807,20.9909565 28.1391842,20.4292275 26.185977,21.1252599 C25.7797696,21.2702222 25.3810254,21.473809 24.9780165,21.6336939 C23.3691793,22.2711019 21.7848639,23.2730474 20.9681845,24.8623036 C20.5992927,25.579654 20.4329716,26.4089238 20.3455464,27.2051507 C20.1792253,28.7389802 20.3700681,30.3985857 21.0438819,31.8023754 C21.9074724,33.6048115 23.7124832,34.8018166 25.5878606,35.2836032 C26.6838743,35.5660666 27.8513207,35.8016304 28.9803853,35.5927141 C31.6063402,35.1066639 34.4999014,33.6144046 35.6385615,31.0796955 C35.8219412,30.6693242 35.9605422,30.2323054 36.0447689,29.7665073 C36.2196193,28.7901433 36.1172679,27.7167825 35.8944402,26.7553412 C35.7110605,25.9633778 35.2376849,25.3579469 34.7941619,24.699221 C34.3804914,24.0852628 34.0872971,23.3615171 33.563812,22.8306991 C33.1224213,22.386219 32.5179079,22.0515266 31.949644,21.7999743 M40.0364761,25.3494197 C40.6313941,27.1699761 40.1409599,29.133363 39.3551992,30.8153524 C38.6035556,32.4248607 37.5320637,33.9021975 36.1012754,34.9712947 C34.3762268,36.2589013 31.6841699,37.8652119 29.4335038,37.704261 C28.4057245,37.6317799 27.2958507,37.5582328 26.2723361,37.6936021 C24.36604,37.9462202 23.5184419,36.7737308 22.1729466,35.6929086 C19.753827,33.7487079 17.5948507,30.9592489 17.4104048,27.7487595 C17.3560306,26.8033066 17.4605144,25.77045 17.6342987,24.8420515 C18.5384033,20.0113949 23.7370049,16.9490655 28.4739588,17.644032 C30.0092308,17.8689368 31.3557923,18.7312495 32.7354048,19.3793165 C33.8100952,19.8834869 34.8815871,20.4015141 35.9040356,21.0048132 C37.5054096,21.9502661 39.1334377,23.1739188 39.8786843,24.9273235 C39.936257,25.0648245 39.9895651,25.2055232 40.0364761,25.3494197 M39.7390172,19.7822265 C38.6952455,18.695009 37.6674661,17.5608919 36.3688819,16.7689285 C34.5606726,15.6667884 32.4134241,14.9878104 30.3194837,14.7085447 C29.1200524,14.3717205 27.5272077,14.3482707 26.0505746,14.4420699 C24.386297,14.8950772 22.6228665,15.3182393 21.1291748,16.2071995 C19.2996423,17.2976147 17.2867301,18.4242705 15.8740667,20.0412401 C15.1554741,20.8619827 14.4976526,21.7946448 14.1266286,22.8296332 C13.944315,23.3391332 13.8387651,23.8720829 13.8227727,24.412494 C13.7929201,25.3803308 13.9539105,26.4888663 14.0210786,27.467362 C14.0978422,28.5833588 14.2769573,29.6961579 14.592541,30.7695188 C14.996616,32.1445291 15.446536,33.556846 16.3314498,34.7037539 C17.1236075,35.731281 17.6534896,36.8813866 18.7196507,37.6722841 C19.8934941,38.543124 21.2699081,39.0909963 22.5674262,39.7475904 C25.5025677,41.2323885 28.8492475,40.9861657 32.0317384,40.7037023 C33.9774825,40.5310266 35.8123458,39.6122212 37.3806688,38.4919608 C38.1280477,37.959011 38.8519711,37.3567778 39.4820724,36.6873929 C40.439485,35.668393 41.3158695,34.5108261 42.0120727,33.25946 C42.7583855,31.9164266 43.2957307,30.4636056 43.496169,28.9596214 C43.7424522,27.1124175 43.5974543,25.1575578 42.7381284,23.4777001 C42.0110065,22.0557902 40.8339647,20.922739 39.7390172,19.7822265 M44.2382171,33.7572351 C43.588925,35.392325 42.7701133,36.8259598 41.5354987,38.0666669 C40.7774581,38.8277191 40.0524686,39.6527254 39.1824811,40.2880015 C38.4372345,40.8326761 37.5821732,41.2195977 36.7164504,41.5702786 C36.1087386,41.8165014 35.4956959,42.0456698 34.9093073,42.3004198 C34.3730283,42.53172 33.9241744,42.9250369 33.3516459,43.0806582 C32.8430871,43.2181593 32.3451898,43.1925777 31.8686158,43.4686457 C31.4570776,43.7052754 30.1947428,43.581631 29.6840517,43.6391896 C28.7948733,43.74045 27.9056949,43.8534354 27.0090534,43.8459741 C26.0015311,43.8374469 25.3511729,43.4782388 24.4993101,43.2075003 C23.6239918,42.9293005 22.8019816,42.7534271 21.8861492,42.5647629 C21.315753,42.446448 20.7901356,42.1906321 20.2442611,41.9977043 C19.7932749,41.8388853 19.3017747,41.8452807 18.8689132,41.7077797 C16.6022547,40.9882975 14.7759207,38.0069765 13.6244667,36.0936869 C12.7726039,34.6792382 11.6104883,33.4140155 11.0603492,31.8364842 C10.3993293,29.9402489 10.675465,27.8830628 11.1157896,25.9708391 C11.7640155,23.1568644 12.8834847,20.5134335 13.9048671,17.8231031 C13.9890938,17.6003301 14.5392329,17.1132141 14.6970248,16.8616618 C14.9720943,16.4257089 15.2183776,15.9599108 15.6501728,15.6529317 C17.0052636,14.694688 18.5810497,14.1254977 19.9670592,13.2194831 C23.5045818,10.9096788 28.588038,11.0727615 32.6106639,11.6845878 C37.0075124,12.3529068 39.711297,15.0315123 42.1719969,18.5297945 C43.4012806,20.2778697 44.720122,22.0941625 45.3651494,24.1545463 C46.282048,27.0900336 45.3459585,30.9677761 44.2382171,33.7572351 M46.3257606,17.2571105 C44.9887946,15.3054485 43.3319802,13.6298544 41.3382589,12.3475773 C39.3786547,11.08875 37.2505971,9.6615105 35.0169896,8.94522602 C33.3708368,8.41867166 31.9464456,7.39434222 30.2448524,6.99676169 C27.6562132,6.39452846 24.8287539,6.94773032 22.308349,7.60645622 C21.289099,7.8729311 20.3583403,8.26091853 19.4414418,8.7768139 C18.6663426,9.2127668 17.8208769,9.47284629 16.9743449,9.72972807 C16.2589508,9.94823747 15.7333334,10.2616119 15.0680488,10.5632615 C14.7279434,10.716751 14.4315507,10.865977 14.1298271,11.0919477 C13.4474839,11.6025135 12.8898817,12.2718984 12.3173531,12.8986474 C11.806662,13.4593105 11.4153808,14.079664 11.0614153,14.747983 C10.172237,16.4267748 9.29691869,18.1609933 8.74038259,19.9815497 C8.09215663,22.1026897 7.98020971,24.3368151 7.94822487,26.5410953 C7.91837236,28.6483787 7.89171833,30.8739769 8.46637918,32.920504 C8.85126334,34.289119 9.63062712,35.4786628 10.4227848,36.6426251 C11.1456421,37.704261 11.7373615,38.9662861 12.5828273,39.9309252 C13.1297679,40.5555423 13.653253,41.184423 14.10957,41.8761918 C14.6906278,42.7576907 15.5243658,43.4984909 16.4284704,44.0197157 C17.0425792,44.3735944 17.9242945,44.875633 18.6279608,44.9641027 C20.4969413,46.4233191 22.692167,46.9999708 25.0355892,47.1619875 C29.0656782,47.4391214 33.9572254,47.4945482 37.6781277,45.7049029 C38.9596534,45.0898788 39.7368849,44.2243684 40.5940784,43.2682566 C40.8147738,43.0220338 41.0407999,42.7694156 41.2817523,42.5146656 C41.9203828,41.8356876 42.6634971,41.2643655 43.370362,40.6589345 C43.7659077,40.3210444 44.1550566,39.9767588 44.5324776,39.6196825 C46.5581837,37.7010634 48.359996,35.052303 49.0636624,32.3438523 C50.4294148,27.0868359 49.3824445,21.7157682 46.3257606,17.2571105 M50.8249605,34.2262309 C50.8068358,34.3264255 50.7855126,34.42662 50.7599247,34.5246828 C50.5338985,35.4072476 49.8814079,36.1416523 49.7556009,37.0540623 C49.670308,37.6648228 48.9858326,38.5836282 48.6361318,39.1059189 C48.1382345,39.847785 47.5305227,40.5086427 46.950531,41.1854889 C45.6487483,42.7001321 44.1774459,44.2201048 42.5643442,45.4053851 C41.6421148,46.0822313 40.7422748,46.7079143 39.7347525,47.2557867 C39.1270407,47.5872814 38.4361683,47.7471664 37.8113979,48.0466841 C37.0544235,48.4112218 36.3400955,48.8610314 35.5575333,49.1733399 C34.483909,49.6007656 33.3772338,49.9375899 32.2545661,50.212592 C27.2009624,51.4511672 21.2091369,50.8926358 16.4412644,48.3067636 C12.4058445,46.1195378 9.79908058,43.761768 7.75524971,40.3071877 C6.60272954,38.3576575 5.41182757,36.2002768 4.60900824,34.0834004 C3.85629849,32.1008273 3.55670722,30.0287186 3.44689262,28.0930451 C3.33387954,26.0966152 3.49273755,23.881676 3.74968238,21.9001688 C3.78593186,21.6177055 3.86376162,21.3075287 3.90960655,21.0463833 C4.07912616,20.083876 4.57382493,19.3889095 4.81690966,18.5916167 C5.12396406,18.2579902 5.40329828,17.8977161 5.56428861,17.4180613 C5.66557391,17.1174777 6.2583595,16.5237716 6.47798869,16.2263857 C6.79996935,15.7904328 7.15606716,15.3864568 7.4620554,14.9345154 C8.15292781,13.9155155 8.74038259,12.828298 9.48029841,11.841275 C11.2895738,9.41848541 13.3771173,7.03513408 16.055314,5.55353374 C19.5512564,3.61999201 23.4960525,3.01989057 27.442981,3.38123051 C29.0134363,3.52512695 30.5892224,3.69034137 32.1180975,4.0857901 C33.5798044,4.46418443 34.9487553,5.10479004 36.3635511,5.62281721 C37.1290548,5.90314878 37.7932731,6.0939448 38.4724178,6.52243641 C39.9117353,7.428451 41.4800583,8.15219678 42.8639354,9.14348333 C44.1369318,10.0537615 45.1465864,11.2667552 46.1477117,12.4562991 C47.0251623,13.4998147 48.1723517,14.3909067 48.9229291,15.5314192 C49.7460055,16.784917 49.9389806,18.4104138 50.2716229,19.8429827 C51.350578,24.4860411 51.6821541,29.514955 50.8249605,34.2262309 M36.6791348,1.78451303 C36.4509763,1.74614065 36.382742,1.54788333 36.0394381,1.6246281 C34.6043852,0.906211821 32.6852952,0.672779825 30.9687758,0.236826921 C29.6275451,-0.104260927 27.9515398,0.0247129156 26.5687289,0.0204493175 C24.9993397,0.0161857194 23.4256859,0.132368767 21.8829507,0.425491136 C20.1760268,0.75165639 18.6364901,1.6161009 16.9412939,1.98383624 C15.1437463,2.37288956 13.2107962,2.7310318 11.6851196,3.82357882 C11.4249763,4.00904533 9.06556173,6.40198976 9.0335769,6.37321047 C9.0335769,6.37321047 1.62588942,14.0754004 0.224953711,22.7539543 C-0.157798132,25.1319762 -0.0298587972,28.0557386 0.440318257,30.3836631 C0.440318257,30.3836631 1.87430497,38.8149284 7.64543512,45.1644918 C8.27873482,45.8605242 8.96321026,47.2078212 9.65088419,47.8303065 C10.3865354,48.4954278 11.0795401,49.2202395 11.8631685,49.829934 C12.6659878,50.4545511 13.6031435,50.6773241 14.4347491,51.2156034 C21.2400556,55.6230979 29.7416244,55.9982946 29.7416244,55.9982946 C30.6009502,56.0345351 32.1500823,55.5410237 32.8366901,55.4621471 C35.4914313,54.3770614 38.1973482,54.0882026 40.6228648,52.4584422 C42.7594516,51.0248074 44.4855665,49.034773 46.8204594,47.8857333 C47.5944923,47.5041413 48.2373875,46.9903777 48.6350656,46.2314572 C49.0316775,46.1653715 49.200131,45.9660483 49.4346864,45.6441466 C54.8390572,38.2531993 56.0001142,29.5298776 56.0001142,29.5298776 C56.0011728,27.839361 55.890292,26.2607638 55.7325002,24.7280003 C55.4979447,23.2794428 55.4979447,22.5951353 55.0192384,20.9547159 C54.9467394,20.7063614 54.9925844,20.4516114 54.8838359,20.1947296 C54.7516319,19.882421 54.5234735,19.6298028 54.3582185,19.3377464 C53.9616066,18.6363845 53.8485935,17.9456816 53.7078602,17.1867611 C53.6012441,16.615439 53.1630519,16.1336524 52.8837177,15.6433386 C52.3996805,14.7916849 51.8378136,13.963481 51.41668,13.0649277 C48.4751414,6.79210899 36.6844656,1.70030697 36.6844656,1.70030697" mask="url(#b)"/></g></svg>