<?xml version="1.0" encoding="UTF-8"?><svg id="_图层_1" xmlns="http://www.w3.org/2000/svg" viewBox="0 0 488.46 170"><defs><style>.cls-1{fill:#010101;}</style></defs><path class="cls-1" d="m94.21,27.14c5.95-7.2,9.95-17.19,8.85-27.14-8.56.31-18.91,5.7-25.05,12.87-5.49,6.37-10.32,16.55-9.01,26.3,9.54.74,19.28-4.84,25.21-12.02m44.22,97.55c-.21.61-3.57,12.2-11.77,24.18-7.09,10.36-14.44,20.68-26.03,20.9-11.38.21-15.05-6.76-28.05-6.76s-17.1,6.54-27.86,6.97c-11.18.41-19.7-11.2-26.85-21.53C3.28,127.36-7.87,88.81,7.11,62.83c7.43-12.93,20.74-21.12,35.17-21.32,10.99-.21,21.34,7.38,28.06,7.38s19.3-9.13,32.54-7.79c5.54.23,21.09,2.23,31.1,16.86-.8.5-18.57,10.84-18.37,32.35.23,25.72,22.57,34.27,22.83,34.39"/><path class="cls-1" d="m228.11,73.71l-3.56-11.03c-.38-1.14-1.09-3.78-2.13-7.96h-.13c-.42,1.79-1.09,4.44-2,7.96l-3.5,11.03h11.32Zm12.36,17.56h-7.2l-3.95-12.35h-13.71l-3.76,12.35h-7.01l13.59-42.18h8.4l13.65,42.18Z"/><path class="cls-1" d="m269.64,91.27h-5.94l-.38-4.63h-.12c-2.13,3.54-5.35,5.3-9.64,5.3-3.01,0-5.4-.95-7.19-2.82-2.13-2.29-3.2-5.76-3.2-10.38v-17.89h6.73v16.78c0,5.85,2.02,8.77,6.04,8.77,3.03,0,5.12-1.46,6.3-4.37.29-.76.44-1.61.44-2.57v-18.6h6.72v21.65c0,2.89.09,5.8.25,8.77"/><path class="cls-1" d="m293.29,65.89h-7.43v14.78c0,3.76,1.3,5.63,3.93,5.63,1.2,0,2.21-.1,2.99-.3l.19,5.1c-1.34.49-3.09.75-5.25.75-2.67,0-4.75-.81-6.25-2.44-1.51-1.63-2.26-4.36-2.26-8.19v-15.34h-4.45v-5.04h4.45v-5.58l6.64-1.99v7.57h7.43v5.04Z"/><path class="cls-1" d="m325.98,91.27h-6.72v-17.28c0-5.45-2.06-8.18-6.15-8.18-3.14,0-5.3,1.59-6.48,4.75-.21.67-.31,1.48-.31,2.43v18.29h-6.73v-44.36h6.73v18.27h.13c2.13-3.27,5.17-4.92,9.14-4.92,2.8,0,5.11.92,6.95,2.75,2.3,2.29,3.44,5.7,3.44,10.2v18.07Z"/><path class="cls-1" d="m354.43,76c0-2.78-.61-5.17-1.83-7.17-1.41-2.4-3.44-3.61-6.07-3.61s-4.77,1.21-6.18,3.61c-1.22,2-1.83,4.42-1.83,7.29s.61,5.17,1.83,7.16c1.45,2.42,3.5,3.62,6.13,3.62s4.6-1.23,6.08-3.68c1.24-2.02,1.87-4.43,1.87-7.22m7.01-.18c0,4.67-1.34,8.5-4.01,11.5-2.8,3.09-6.51,4.64-11.13,4.64s-8.03-1.49-10.67-4.44c-2.65-2.97-3.98-6.69-3.98-11.19s1.36-8.56,4.1-11.55c2.73-3.01,6.41-4.51,11.04-4.51s8.05,1.48,10.76,4.44c2.58,2.88,3.88,6.58,3.88,11.12"/><path class="cls-1" d="m383.22,66.81c-.67-.1-1.38-.16-2.15-.16-2.39,0-4.24.9-5.53,2.69-1.14,1.58-1.71,3.58-1.71,5.99v15.95h-6.71v-20.85c0-3.5-.07-6.69-.17-9.57h5.88l.25,5.82h.19c.72-1.99,1.83-3.59,3.38-4.79,1.5-1.09,3.12-1.63,4.88-1.63.62,0,1.18.04,1.69.13v6.41Z"/><path class="cls-1" d="m395.7,91.27h-6.72v-30.43h6.72v30.43Zm.76-39.53c0,1.22-.39,2.19-1.18,2.94-.8.74-1.82,1.12-3.06,1.12-1.12,0-2.07-.38-2.84-1.15-.77-.77-1.15-1.74-1.15-2.91s.39-2.12,1.18-2.88c.79-.75,1.77-1.12,2.93-1.12s2.14.37,2.94,1.12c.79.76,1.18,1.72,1.18,2.88"/><path class="cls-1" d="m448.02,72.87c.03-2.01-.39-3.73-1.32-5.2-1.17-1.88-2.98-2.81-5.39-2.81-2.22,0-4.02.92-5.4,2.75-1.13,1.46-1.79,3.21-2.01,5.26h14.12Zm6.47,1.75c0,1.21-.09,2.23-.25,3.07h-20.34c.09,3,1.08,5.3,2.95,6.88,1.71,1.42,3.92,2.13,6.64,2.13,3.01,0,5.75-.48,8.21-1.45l1.07,4.72c-2.88,1.25-6.28,1.88-10.2,1.88-4.72,0-8.42-1.39-11.1-4.17-2.7-2.78-4.05-6.5-4.05-11.17s1.25-8.42,3.77-11.46c2.62-3.26,6.18-4.88,10.64-4.88s7.7,1.63,9.96,4.88c1.8,2.58,2.7,5.76,2.7,9.56"/><path class="cls-1" d="m481.46,78.45v-5.05c0-.87-.07-1.58-.2-2.12-.38-1.61-1.18-2.98-2.44-4.08-1.25-1.1-2.75-1.64-4.51-1.64-2.5,0-4.47.99-5.91,2.99-1.44,1.99-2.16,4.54-2.16,7.66s.69,5.42,2.07,7.29c1.46,2,3.41,2.99,5.88,2.99,2.21,0,3.99-.82,5.31-2.48,1.3-1.54,1.96-3.39,1.96-5.54m7.01,12.82h-6l-.31-4.88h-.2c-1.92,3.71-5.16,5.56-9.75,5.56-3.67,0-6.73-1.44-9.14-4.31-2.42-2.87-3.63-6.6-3.63-11.19,0-4.91,1.32-8.9,3.96-11.93,2.55-2.83,5.7-4.25,9.42-4.25,4.11,0,6.99,1.36,8.63,4.11v-17.47h6.71v36.17c0,2.96.1,5.7.3,8.2"/><path class="cls-1" d="m228.12,133.04c0-4.81-2.88-7.25-8.65-7.29-2.17,0-3.8.15-4.88.44v14.26h4.76c2.68,0,4.81-.67,6.39-2.04,1.58-1.37,2.38-3.14,2.38-5.37m8.22,30.19h-7c-.67-1.25-1.58-4.59-2.75-10.02-.58-2.85-1.48-4.84-2.65-5.99-1.19-1.15-2.92-1.73-5.16-1.73h-4.19v17.73h-6.72v-41.64c3.08-.58,6.73-.88,10.95-.88,5.72,0,9.9,1.13,12.52,3.38,2.33,2.01,3.5,4.79,3.5,8.34,0,2.59-.77,4.86-2.31,6.83-1.38,1.75-3.17,3.03-5.38,3.82v.12c2.87,1.09,4.86,3.88,5.95,8.4.83,3.5,1.44,5.93,1.81,7.25.58,2.22,1.06,3.68,1.44,4.39"/><path class="cls-1" d="m260.19,144.84c.03-2-.41-3.73-1.32-5.2-1.17-1.88-2.97-2.81-5.4-2.81-2.21,0-4.02.92-5.4,2.75-1.13,1.46-1.79,3.21-2,5.26h14.12Zm6.46,1.75c0,1.22-.08,2.24-.25,3.07h-20.34c.09,3,1.07,5.3,2.95,6.88,1.71,1.41,3.92,2.12,6.64,2.12,3.01,0,5.75-.48,8.22-1.43l1.06,4.71c-2.88,1.26-6.28,1.88-10.2,1.88-4.71,0-8.42-1.39-11.11-4.17-2.69-2.77-4.04-6.5-4.04-11.18s1.25-8.4,3.77-11.46c2.63-3.26,6.18-4.88,10.64-4.88s7.71,1.62,9.96,4.88c1.79,2.58,2.69,5.76,2.69,9.56"/><path class="cls-1" d="m291.16,154.46c0,2.83-1.04,5.11-3.13,6.8-2.08,1.71-4.96,2.57-8.63,2.57-3.47,0-6.41-.69-8.82-2.06l1.44-4.98c2.34,1.38,4.84,2.07,7.47,2.07,3.47,0,5.21-1.26,5.21-3.8,0-1.12-.38-2.06-1.14-2.78-.75-.72-2.08-1.45-4-2.15-5.43-1.99-8.14-4.9-8.14-8.73,0-2.62.99-4.8,3-6.55,1.99-1.74,4.64-2.61,7.93-2.61,3.01,0,5.57.59,7.69,1.79l-1.44,4.8c-1.97-1.15-4.03-1.73-6.2-1.73-1.42,0-2.52.33-3.33,1-.79.67-1.18,1.52-1.18,2.56s.42,1.9,1.25,2.57c.71.62,2.09,1.32,4.13,2.06,5.26,2.01,7.89,5.07,7.89,9.19"/><path class="cls-1" d="m422.83,81.94c0,2.83-1.04,5.11-3.13,6.8-2.08,1.71-4.96,2.57-8.63,2.57-3.47,0-6.41-.69-8.82-2.06l1.44-4.98c2.34,1.38,4.84,2.07,7.47,2.07,3.47,0,5.21-1.26,5.21-3.8,0-1.12-.38-2.06-1.14-2.78-.75-.72-2.08-1.45-4-2.15-5.43-1.99-8.14-4.9-8.14-8.73,0-2.62.99-4.8,3-6.55,1.99-1.74,4.64-2.61,7.93-2.61,3.01,0,5.57.59,7.69,1.79l-1.44,4.8c-1.97-1.15-4.03-1.73-6.2-1.73-1.42,0-2.52.33-3.33,1-.79.67-1.18,1.52-1.18,2.56s.42,1.9,1.25,2.57c.71.62,2.09,1.32,4.13,2.06,5.26,2.01,7.89,5.07,7.89,9.19"/><path class="cls-1" d="m316.25,144.84c.03-2-.4-3.73-1.32-5.2-1.17-1.88-2.97-2.81-5.4-2.81-2.22,0-4.02.92-5.4,2.75-1.13,1.46-1.79,3.21-2,5.26h14.12Zm6.47,1.75c0,1.22-.08,2.24-.25,3.07h-20.34c.08,3,1.07,5.3,2.94,6.88,1.71,1.41,3.93,2.12,6.64,2.12,3.01,0,5.75-.48,8.21-1.43l1.07,4.71c-2.88,1.26-6.28,1.88-10.2,1.88-4.72,0-8.42-1.39-11.11-4.17-2.7-2.77-4.04-6.5-4.04-11.18s1.25-8.4,3.76-11.46c2.63-3.26,6.18-4.88,10.64-4.88s7.71,1.62,9.96,4.88c1.79,2.58,2.69,5.76,2.69,9.56"/><rect class="cls-1" x="328.72" y="118.87" width="6.72" height="44.36"/><rect class="cls-1" x="343.49" y="118.87" width="6.72" height="44.36"/><path class="cls-1" d="m376.52,144.84c.03-2-.4-3.73-1.32-5.2-1.18-1.88-2.98-2.81-5.4-2.81-2.21,0-4.02.92-5.4,2.75-1.12,1.46-1.79,3.21-2,5.26h14.12Zm6.46,1.75c0,1.22-.08,2.24-.25,3.07h-20.34c.08,3,1.07,5.3,2.95,6.88,1.7,1.41,3.91,2.12,6.64,2.12,3.02,0,5.75-.48,8.22-1.43l1.07,4.71c-2.88,1.26-6.28,1.88-10.2,1.88-4.72,0-8.42-1.39-11.11-4.17-2.7-2.77-4.04-6.5-4.04-11.18s1.25-8.4,3.76-11.46c2.62-3.26,6.18-4.88,10.65-4.88s7.7,1.62,9.96,4.88c1.79,2.58,2.69,5.76,2.69,9.56"/><path class="cls-1" d="m405.06,138.76c-.67-.1-1.39-.15-2.14-.15-2.39,0-4.24.9-5.54,2.69-1.14,1.59-1.7,3.58-1.7,5.99v15.94h-6.72v-20.85c0-3.5-.06-6.69-.17-9.58h5.89l.25,5.84h.18c.72-1.99,1.84-3.59,3.39-4.8,1.5-1.09,3.12-1.62,4.88-1.62.62,0,1.19.04,1.69.12v6.41Z"/></svg>